<?xml version="1.0" encoding="UTF-8"?>
<svg id="Camada_2" data-name="Camada 2" xmlns="http://www.w3.org/2000/svg" viewBox="0 0 511.22 614.35">
  <defs>
    <style>
      .cls-1 {
        fill: #2c57aa;
      }
    </style>
  </defs>
  <g id="Camada_1-2" data-name="Camada 1">
    <path class="cls-1" d="M426.98,509.68c-21.65,52-62.69,87.86-116.98,99.22-33.22,6.95-66.57,7.23-99.96.9-103.54-19.62-139.68-116.63-148.17-213.04l-34.14-.8C9.91,395.55-.38,379.72.01,363.07c.37-15.87,8.69-28.95,24.92-32.1,12.24-2.38,27.88-3.63,39.93.44l40.85,13.8c2.62,35.28,33.3,58.86,66.83,55.66,35.1-3.35,59.22-35.09,54.13-70.64-3.75-26.13-23.41-46.04-46.96-50.87-26.83-5.49-52.41,7.02-65.86,31.06l-53.72-13.23c5.8-52.04,34.21-103.4,63.95-145.16C163.4,96.81,208.15,47.57,257.84,1.36c2.9-2.69,9.2-1,11.88,1.65,61.12,60.35,118.74,128.69,157.24,205.73,14.88,29.77,25.47,60.18,29.69,94.06l-55.74,12.06c-9.47-21.03-27.91-34.25-48.35-36.94-22.31-2.94-43.95,6.35-57.65,24.64-11.85,15.83-16.2,35.18-10.31,55.37,4.71,16.16,18.32,31.87,36.81,39.06,35.95,13.97,75-8.2,83.71-45.95l42.19-15.98c13.72-5.19,30.38-4.02,43.96.93,12.5,4.55,18.8,16.18,19.83,29.03,1.4,17.46-9.94,34.47-28.19,35.13l-29.32,1.07c-5.58,36.87-11.87,73.04-26.62,108.46ZM310.63,463.25l-58.98-10.87c-5.1-.94-8.15-6.65-7.07-12.1l34.06-172.36c1.32-6.69-3.37-13.24-7.55-15.02-4.3-1.82-14.08.56-15.22,6.44l-34.78,179.37c-3,15.49,4.52,31.36,20.07,34.33l65.47,12.52c4.26.81,10.28-6.9,10.75-10.6.43-3.33-2.86-10.99-6.74-11.71Z"/>
  </g>
</svg>