<?xml version="1.0" encoding="UTF-8"?>
<svg id="Camada_2" data-name="Camada 2" xmlns="http://www.w3.org/2000/svg" viewBox="0 0 1763.73 344.06">
  <defs>
    <style>
      .cls-1 {
        fill: #2c57aa;
      }
    </style>
  </defs>
  <g id="Camada_1-2" data-name="Camada 1">
    <path class="cls-1" d="M894.08,272.19l-.35-108.55c-.06-17.36-11.19-31.19-27.38-31.84-15.1-.61-32.08,11.52-32.18,29.35l-.62,110.78-47.56,2.09c-3.45.15-9.92-7.7-9.91-11.18l.38-178.16,47.44-2.3,4.76,16.04c26.16-27.21,81.88-29.2,104.7,4.07,26.5-25.51,66.9-33.04,99.53-13.88,20.63,12.11,33.05,36.18,33.13,60.37l.38,122.89-56.08.41-1.38-116.65c-.18-15.17-17.2-24.19-29.17-23.84-13.47.39-28.89,11.05-28.96,26.72l-.46,113.57-56.27.1Z"/>
    <path class="cls-1" d="M207.16,156.42c-.22,63.44-50.42,111.57-111.15,115.8l-96.02.14L.09,35.92l92.97.16c62.72,4.77,114.34,54.77,114.1,120.34ZM91.83,214.93c33.71-1.25,56.3-30.95,55.26-61.23-1-29.31-22.52-57.75-54-59.37l-33.37-1.71v123.51s32.11-1.19,32.11-1.19Z"/>
    <path class="cls-1" d="M1145.1,344.06l-57.7-.2-.22-250.01c0-2.83,4.94-11.29,8.15-11.2l37.85,1.01c4.47,1.16,6.56,14.89,6.69,19.34,30.01-35.28,82.77-28.72,115.12-.52,20.75,18.08,31.77,46.18,31.67,75.64-.17,51.45-36.33,95.16-87.62,98.07-21.97,1.24-41.63-5.07-54.1-21.81l.15,89.68ZM1175.64,133.73c-26.04,6.61-38.1,32.79-31.77,55.01,6.6,23.2,30.17,36.38,52.15,31.26,24.73-5.76,38-30.11,32.74-53.92-5.02-22.74-27.53-38.84-53.12-32.35Z"/>
    <path class="cls-1" d="M1707.92,83.71l44.93-1.57c2.4-.08,8.46,2.18,9.85,3.94,1.74,2.19,1.02,8.07-.34,11.43l-70.71,174.19-39.38,1.24-31.15-73.13-29.02,71.25c-12.33,2.7-25.6,2.83-39.51.26l-68.92-172.65c-.93-2.33-1.61-9.07-.93-11.46.85-2.99,8.15-4.95,11.44-4.88l45.35.9,33.17,101.11,35.28-101.23,47.14-1.03c3.47-.08,9.46,7.63,7.78,11.96l-16.18,41.79,23.97,49.22,37.23-101.3Z"/>
    <path class="cls-1" d="M1416.8,273.45c-62.69,14.07-119.57-30.21-121.89-92.47-1.91-51.2,31.86-92.37,82.46-100.39,32.23-5.11,65.26,5.13,87.38,27.52,23.23,23.51,32.43,57.51,25.39,90.91-7.89,37.45-34.58,65.74-73.34,74.44ZM1435.69,174.14c-1.44-24.92-19.54-41.47-41.16-41.85s-39.95,15.69-43.19,38.47c-3.8,26.71,14.98,49.23,40.62,50.52,24.7,1.24,45.32-19.57,43.73-47.14Z"/>
    <path class="cls-1" d="M683.72,216.06l1.58,47.29c.14,4.15-6.3,10.11-11.47,10.08l-140.38-.63-.08-236.53,60.4-.13.4,179.8,89.56.11Z"/>
    <path class="cls-1" d="M278.28,272.34h-56.91s-.24-186.21-.24-186.21c15.78-6.55,44.87-4.62,47.89-1.29,2.47,2.73,3.75,9.21,5.18,14.93,26.03-29.47,67.67-27.23,100.81.44l-28.27,46.07c-15.1-11.33-26.8-17.09-42.19-13.56-9.98,2.29-25.65,13.6-25.72,27.85l-.54,111.76Z"/>
    <path class="cls-1" d="M755.9,270.98l-45.56,2.96c-4.71.31-12.11-6.03-12.12-11.07l-.09-178.79,45.86-2.39c4.83-.25,11.98,6.57,11.98,11.86l-.07,177.44Z"/>
    <path class="cls-1" d="M716.82,2.11c17.19-6.79,33.68,3.77,38.44,18.03,5.22,15.63-2.51,32.19-17.93,37.72-14.44,5.18-31.51-1.61-37.34-15.71-6.16-14.89-.3-33.29,16.82-40.05Z"/>
    <path class="cls-1" d="M339.23,222.67c15.86-7.19,31.39.79,36.94,13.47,6.31,14.41.55,31.03-12.9,37.23-13.51,6.23-29.63,1.06-36.48-11.17-7.36-13.13-3.33-32.38,12.45-39.53Z"/>
  </g>
</svg>