<?xml version="1.0" encoding="UTF-8"?>
<svg id="Camada_2" data-name="Camada 2" xmlns="http://www.w3.org/2000/svg" viewBox="0 0 2194.78 567.81">
  <defs>
    <style>
      .cls-1 {
        fill: #2c57aa;
      }
    </style>
  </defs>
  <g id="Camada_1-2" data-name="Camada 1">
    <g>
      <path class="cls-1" d="M391.08,478.74c-37.93,79.66-118.39,100.94-201.51,83.26-91.91-19.55-124.5-106.49-130.5-196.43-12.05.51-26.37,1.02-38.03-1.49-17.5-3.77-22.91-22.12-20.49-36.75,5.71-34.48,60.55-29.87,97.49-6.92,5.22,25.38,20.82,42.54,41.56,47.56,24.75,5.99,47.75-3.23,60.82-21.14,14.9-20.41,14.43-46.67,0-67.79-11.1-16.25-30.57-24.42-49.92-22.55-17.93,1.73-34.62,11.87-44.74,30.31l-49.93-13.52C71.77,167.35,165.64,69.4,242.98,0c77.33,73.53,161.68,174.11,178.5,277.98l-51.63,11.92c-12.49-27.12-40.43-39.54-67.61-31.77-25.17,7.19-44.15,34.36-41.02,61.53,3.16,27.42,26.96,49.16,54.13,50.29,28.6,1.19,53.02-17.69,59.31-47.11l43.41-15.5c8.93-3.19,26.37-1.71,35.79,1.77,12.26,4.54,17.96,16.81,18.45,27.48.49,10.58-4.87,24.11-16.71,28.67-11.19,4.32-25.48,4.25-37.41,3.66-4.67,37.64-10.82,75.6-27.11,109.8ZM278.32,447.66c3.78.74,11.2-2.25,13.8-5.02,2.24-2.39.88-13.11-2.83-13.86l-62.73-12.77,32.09-173.15c.77-4.16-9.3-11.31-13.36-10.31-3.48.86-8.43,6.39-9.25,10.8l-30.13,161.83c-2.94,15.81,5.53,29.41,20.91,32.42l51.51,10.07Z"/>
      <path class="cls-1" d="M1445.29,473.66c-17.75,2.11-34.16,2.12-52.19.7l-.7-105.44c-.1-15.04-14.94-24.13-27.24-23.51-14.08.71-26.03,12.29-26.16,28.15l-.79,101.52-52.38-.21.08-174.01,42.89-1.38,4.15,15.12c26.1-26.37,70.56-26.63,97.5,2.02,24.77-22.06,58.95-28.64,88.24-12.56,20.52,11.26,31.69,34.63,31.73,58.09l.2,112.01-51.39.76-.68-104.18c-.1-15.08-12.4-24.99-25.5-25.35-14.08-.39-27.79,10.08-27.78,25.79l.02,102.47Z"/>
      <path class="cls-1" d="M668.2,474.55l-84.81.73-.12-215.65,81.52-.15c40-.07,77.34,24.69,94.66,60.03,16.73,34.13,15.77,72.34-4.87,105.43-16.58,26.58-48.83,49.29-86.38,49.61ZM716.71,368.52c.2-21.71-12.89-41.92-34.79-51.34-12.16-5.23-28.2-4.98-43.89-4.86l-.09,111.19c41.97,3.95,78.4-16.28,78.76-54.99Z"/>
      <path class="cls-1" d="M1622.52,539.16l-52.35-.57.06-237.89,41.39-.98c3.45,2.21,6.35,12.94,6.54,17.05,21.89-22.77,54.69-25.81,83.57-13.83,40.89,16.96,59.69,61.94,50.73,105-8.75,42.04-42.92,70.5-86.02,69.93-17.28-.23-32.71-7.36-44.05-20.94l.12,82.23ZM1650.45,346.87c-24.06,6.53-34.64,31.21-28.5,50.61,7.01,22.16,30,33.95,51.11,28.54,21.49-5.51,33.63-28.15,28.65-49.02-5.19-21.71-27.26-36.63-51.26-30.12Z"/>
      <path class="cls-1" d="M2184.96,299.23c3.58-.14,9.53,7.14,9.82,10.11l-65.3,164.65-38.02.92-27.68-68.85-28.06,68.85-35.6.39-64.55-161.36c-1.35-3.36,1.37-14.09,5.12-14.06l46.62.3,31.61,93.14,31.71-92.72,53.99.22-17.06,47.59,21.83,46.74,34.25-94.33,41.32-1.58Z"/>
      <path class="cls-1" d="M1874.76,475.25c-39.62,9.12-77.69-6.22-98.46-37.75-20.68-31.39-20.49-73.52,3.1-105.05,21.86-29.21,62.01-42.93,99.48-31.88,39.87,11.75,65.38,47.02,64.92,87.07-.46,40.35-26.26,77.76-69.05,87.61ZM1891.73,384.72c-.9-25.21-20.15-39.93-41.88-38.92-20.69.96-36.05,17.9-36.4,40.3-.37,23.52,17.01,41.25,39.3,41.16,21.44-.08,39.87-17.57,38.98-42.55Z"/>
      <polygon class="cls-1" points="1203.99 423.5 1203.41 475.33 1068.4 475.4 1068.35 260.57 1122.44 260.36 1122.56 423.49 1203.99 423.5"/>
      <path class="cls-1" d="M835.99,475.09l-51.99-.87.33-173.42,43.55-1.32,4.41,15.1c23.94-27.35,67.89-23.68,92.28,3.22l-18.53,33.17c-8.29,14.83-23.79-14.27-50.88-2.78-9.93,4.21-18.99,16.71-19.01,29.36l-.16,97.54Z"/>
      <polygon class="cls-1" points="1267.51 473.69 1214.58 474.65 1214.12 301.5 1267.35 301.25 1267.51 473.69"/>
      <path class="cls-1" d="M1236.48,223.48c15.71-2.76,28.57,7.37,31.12,21.01,2.93,15.67-5.31,30.23-21.12,33.18-14.82,2.76-30.24-5.38-32.53-21.83-1.94-14.01,5.68-29.4,22.53-32.35Z"/>
      <path class="cls-1" d="M906.32,428.46c13.82-6.11,28.32-.24,34.62,12.83,5.84,12.12,1.53,27.77-12.02,34.17-12.23,5.78-28.92.97-34.81-9.96-7.54-13.99-2.06-30.73,12.21-37.04Z"/>
    </g>
  </g>
</svg>